<svg class="concentric-js-visual-container" height="5412" width="7850" style="background: rgb(51, 51, 51);"><defs><filter id="svg-shadow"><feOffset dx="0" dy="-9"></feOffset><feGaussianBlur stdDeviation="7" result="offset-blur"></feGaussianBlur><feComposite operator="out" in="SourceGraphic" in2="offset-blur" result="inverse"></feComposite><feFlood flood-color="rgba(0, 0, 0, 1)" flood-opacity="0.5026" result="color"></feFlood><feComposite operator="in" in="color" in2="inverse" result="shadow"></feComposite><feComponentTransfer in="shadow" result="shadow"><feFuncA type="linear" slope="0.5026"></feFuncA></feComponentTransfer></filter><clipPath clip-path="url(#clip-step-13-shape-0)" id="clip-step-12-shape-0"><path d="M 5398.373939401555 3653.073733713991 C 5218.773868539595 3935.525988945736 4961.770986165415 4160.401868682191 4657.976573895393 4300.916697126138 S 4016.400499433531 4491.662905431677 3684.8643251424346 4445.627841887207 S 3042.0109999365704 4259.23155014138 2787.9934564391533 4041.262402015647 S 2347.964269057603 3536.9031158344887 2252.1141316120993 3216.2035475610055 S 2154.7180825531996 2571.7330176987575 2074.7796056326974 2212.134977268466 S 2516.7380339942592 1628.4047713797117 2775.251865323503 1402.206820963083 S 3337.1001838351035 1038.4343064838836 3668.176389723183 989.2000924262427 S 4337.5035421822395 986.9333136798989 4642.640595756837 1124.5081677591716 S 5094.6303201306255 1393.4642836091223 5480.085035076019 1413.668437701759 S 5669.020156579535 2300.7221009071754 5670.985489510513 2707.784515094476 S 5577.974010263515 3370.6214784822455 5398.373939401556 3653.0737337139904 "></path></clipPath><clipPath clip-path="url(#clip-step-12-shape-0)" id="clip-step-11-shape-0"><path d="M 3931.9161494636846 4287.566968380386 C 3632.337812499798 4288.892824608256 3338.6916639785563 4204.0803528206825 3085.953517653133 4043.2314570682615 S 2632.0375955596082 3652.276676017187 2506.382215568561 3380.3214161818787 S 2335.889954914687 2806.0238502686666 2377.212036566684 2509.3060998041383 S 2544.273525469317 1934.0011684135366 2739.453599807728 1706.726716584833 S 3104.9168994442343 1371.700059274086 3305.513124120448 1207.129891984279 S 4020.8242874290613 1125.9325959143018 4358.630237931015 1223.4995409973524 S 4904.304065866398 1470.7350130944087 5101.488170764544 1696.2729625581326 S 5426.872618550126 2199.2742213000774 5470.819422048519 2495.6145937353203 S 5492.857467865595 2847.0645159663422 5440.189980902374 3016.2358631251545 S 5132.3519144672655 3804.2990900959667 4775.682952686695 4035.7531516688778 S 4231.494486427571 4286.241112152515 3931.916149463685 4287.566968380386 "></path></clipPath><clipPath clip-path="url(#clip-step-11-shape-0)" id="clip-step-10-shape-0"><path d="M 2755.2018223174455 3490.3798858709642 C 2609.8033742257485 3266.1244374634625 2531.9287208640726 3004.8018002058448 2530.8534116846654 2737.5377761433233 S 2605.547459473355 2208.3329440265416 2749.1366922729267 1982.914783551495 S 3098.083056893692 1578.1019999974653 3340.7482648114174 1466.0983763321087 S 3853.1589410343613 1314.202839848786 4117.85563514679 1351.1741121270823 S 4533.921400510529 1459.4870049385358 4661.1480596570655 1654.362974848589 S 5169.713267989585 2027.1268186806356 5261.0935600910525 2333.7700959793665 S 5338.51937651208 2862.582159062602 5264.254151263322 3119.323061855037 S 5043.491506794147 3606.047634809586 4842.211012127134 3781.8810142189755 S 4506.160200419914 4015.6040173395495 4219.785909176086 3759.5832332233367 S 3652.0927847323164 4138.483431406345 3350.952888965482 4002.419062224053 S 2900.6002704091416 3714.635334278466 2755.2018223174455 3490.3798858709647 "></path></clipPath><clipPath clip-path="url(#clip-step-10-shape-0)" id="clip-step-9-shape-0"><path d="M 2794.921431400076 2226.2763384512405 C 2892.9115594390123 2009.6353135531344 3051.107650678963 1825.7259131310802 3250.6671728696274 1696.4533485049303 S 3682.7386442779343 1497.9936151391098 3920.508822344997 1497.1326366574233 S 4391.285906581718 1563.7731583401223 4591.776388992684 1691.5971205874514 S 4951.790688164588 2002.1800025438392 5051.34716335203 2218.1057006676165 S 5186.736599321905 2677.085784803472 4980.726027417075 2889.228964897446 S 5019.351044390581 3367.158138671918 4865.294220672046 3546.255471981041 S 4506.63724786772 3858.4047920690527 4278.740998346338 3926.21849508014 S 3808.2588893195684 3994.9106144119505 3579.8775084601234 3928.7491170080866 S 2996.9583987089045 3623.672102260748 3081.4140229509985 3201.540631800196 S 2719.5316312161112 3064.6066940260534 2697.967650707391 2918.3865507387604 S 2696.9313033611397 2442.917363349346 2794.9214314000756 2226.2763384512405 "></path></clipPath><clipPath clip-path="url(#clip-step-9-shape-0)" id="clip-step-8-shape-0"><path d="M 3764.7806427444148 1651.911743978295 C 3973.6321105463803 1621.196989510056 4186.91086561486 1651.161495371959 4379.213550703897 1738.2362279447666 S 4734.737707028298 1965.8259074195762 4849.436865634483 2143.044514682225 S 5025.478547793491 2526.7160070767595 5026.158007484887 2737.812833390201 S 4966.825225244106 3155.753150762421 4853.269262369528 3333.706445311038 S 4490.772758657281 3722.791849334612 4213.0769409702425 3721.2666810860583 S 3927.0490715086617 3853.6234141844625 3771.797109758496 3831.811357393147 S 3366.5547575058526 3713.6033886500572 3206.5734693997406 3575.87786740948 S 2929.5699617654154 3257.3444395060596 2869.4451763472694 3054.98994382212 S 2828.587813676074 2395.0428740919747 2958.2741334427287 2083.0225705687753 S 3130.3799715161454 1973.258768585261 3201.2162486576976 1911.4784765025072 S 3555.9291749424497 1682.6264984465338 3764.7806427444148 1651.911743978295 "></path></clipPath><clipPath clip-path="url(#clip-step-8-shape-0)" id="clip-step-7-shape-0"><path d="M 4661.364081787601 2102.0112920898355 C 4784.381364020656 2243.1755206746307 4864.23013695036 2416.724784387969 4891.399716290636 2601.987854421961 S 4891.914542147463 2976.419361544592 4814.6102691254955 3146.9615572982893 S 4612.610412104434 3462.2317213405877 4455.375847198806 3563.907100655765 S 4114.994834641256 3719.919872126835 3927.7508412431566 3720.447220474824 S 3462.476946726957 3635.922812273276 3226.6678183105305 3546.6148768156713 S 3095.554099956815 3277.7643440857546 3037.6752123760893 3151.9660637161223 S 2931.69169472018 2792.8467067370443 2957.8173126560932 2607.433537713336 S 3062.812886727482 2248.0240943243134 3185.0330823814766 2106.1691862870994 S 3551.6560561032024 1810.9423037261727 3738.0091719265192 1455.8176478675002 S 4063.5386683219826 1766.8347169729384 4197.5380542169805 1805.7708961767821 S 4538.346799554547 1960.8470635050398 4661.364081787601 2102.011292089835 "></path></clipPath><clipPath clip-path="url(#clip-step-7-shape-0)" id="clip-step-6-shape-0"><path d="M 4757.490065134024 2986.759763220294 C 4711.047804521437 3146.351764997273 4619.711358029925 3289.2312374452313 4494.3596919168385 3398.37999100964 S 4214.924442734632 3578.3463944452883 4050.461639419402 3602.397941748667 S 3718.0885653793175 3602.7212128860515 3566.73040287589 3534.0393575996904 S 3286.9456065497334 3354.616860136816 3196.7472320072748 3215.0076060313345 S 3055.101289580496 2901.4040129001382 2885.394525069385 2726.3263560390374 S 3108.1192593222386 2412.6161837932564 3194.4840944118814 2277.5139048053197 S 3411.8978575969427 2026.111397998418 3562.9226578810753 1956.6995812729601 S 3881.7412110370997 1862.7490889135083 4046.3182191567794 1886.0063243546685 S 4292.117736525702 1948.8570634366565 4582.022154875958 1736.3754922442365 S 4697.812518865618 2300.7618150658354 4756.310724764877 2498.223772334195 S 4803.93232574661 2827.1677614433147 4757.490065134024 2986.7597632202937 "></path></clipPath><clipPath clip-path="url(#clip-step-6-shape-0)" id="clip-step-5-shape-0"><path d="M 4143.9938326489155 3484.0262232593986 C 4002.0727827764495 3526.008302797641 3851.0752946859775 3526.3120629623136 3708.986484297614 3484.901323272253 S 3439.706278460767 3362.110717498882 3342.5619009032516 3250.454775837807 S 3182.4145899026803 3001.5728743242335 3161.057298661152 2855.1217032463524 S 3160.8885221927094 2559.166751207652 3222.0991063329448 2424.417562755663 S 3332.3074677613304 2237.2227844948784 3333.7223369648473 2074.821217804623 S 3735.6363400328246 1972.070307675192 3923.4469313332734 1971.692490952132 S 4216.413508087833 2013.6442135203483 4341.079969711135 2093.4085711344114 S 4564.8583238244155 2287.09029549703 4626.610557586293 2421.592120855189 S 4656.787270590434 2494.581812870493 4780.210802603289 2500.5439305291934 S 4679.229796778479 3051.3984060777693 4509.472186470668 3248.1073138701645 S 4285.914882521382 3442.0441437211566 4143.9938326489155 3484.0262232593986 "></path></clipPath><clipPath clip-path="url(#clip-step-5-shape-0)" id="clip-step-4-shape-0"><path d="M 3472.8506478426507 3264.8652855854957 C 3372.4918376373707 3178.1862689400073 3299.1628791214425 3064.4869201944944 3261.5978899009815 2937.3098220308916 S 3223.8151641201075 2674.8381169793024 3260.9706145404302 2547.540767374092 S 3371.088680175334 2306.3086344793464 3471.1679772558564 2219.307042492092 S 3694.2251265245277 2075.90397948347 3825.453800568706 2056.82053584625 S 3971.954374835179 2047.3229834723152 4038.7601945223655 2091.4029072649505 S 4401.771031244535 2204.3274916838986 4506.32341399749 2366.4399513367985 S 4616.522498470957 2607.6350841677313 4616.735912644588 2740.2438967211906 S 4579.0413479926265 3002.7282774294918 4507.527146599432 3114.4012898879264 S 4491.7990429171 3138.1460717524797 4304.196179281266 3018.6165507932965 S 4080.533705314919 3462.153420149385 3827.657630359619 3426.210612755628 S 3573.2094580479306 3351.544302230984 3472.8506478426507 3264.8652855854957 "></path></clipPath><clipPath clip-path="url(#clip-step-4-shape-0)" id="clip-step-3-shape-0"><path d="M 3305.1026239475864 2649.0643434114845 C 3322.0424345535594 2530.227293837115 3372.783615728455 2418.763763037856 3451.2824508721187 2327.95002830574 S 3632.72921834699 2170.7999581759677 3747.864252516496 2136.8422574043643 S 3985.4687290536936 2102.736734415316 4100.685402405502 2136.41639766556 S 4319.009845537473 2236.183684388148 4397.727678364496 2326.8076565474166 S 4509.233678777433 2491.21819831612 4372.097612258136 2627.3014966384203 S 4553.26386033338 2868.6330121187225 4494.892096791782 2996.8587000643756 S 4365.06948938005 3198.7625498882253 4264.1652229403835 3263.782012737283 S 4045.794033397711 3363.446939098517 3925.7557872323646 3363.591826830374 S 3532.293266637855 3265.688075240463 3677.9324462503832 2913.0959802084576 S 3372.132686289204 3034.023391939614 3355.735833934137 2998.2336765608543 S 3288.162813341614 2767.9013929858534 3305.1026239475864 2649.0643434114845 "></path></clipPath><clipPath clip-path="url(#clip-step-3-shape-0)" id="clip-step-2-shape-0"><path d="M 3685.589032822603 2208.806064443964 C 3785.873914962097 2162.9099305446935 3897.2377231303035 2146.8067574493625 4006.416057869065 2162.414573321643 S 4217.9856223247525 2224.683358220712 4301.394059800474 2296.8397526046506 S 4445.712656568576 2463.6067301621447 4476.869607218575 2569.4025576735617 S 4508.117101531696 2787.7203908341335 4477.1304536690905 2893.56622375575 S 4324.026298541534 3176.5223352604016 4129.509137928245 3146.14441934426 S 4067.243722791213 3292.6476602908906 4007.3324993788915 3301.310805138671 S 3786.789844871956 3301.1703778964306 3686.431229691591 3255.4356968358684 S 3500.974863146703 3136.083200905771 3441.273858930829 3043.3507751408415 S 3320.028949428763 2586.3548730634616 3440.5221719461174 2380.8882527882306 S 3978.8604202360743 2082.9693384094826 3440.7732982579046 2421.2852553268895 S 3585.304150683109 2254.702198343234 3685.589032822603 2208.806064443964 "></path></clipPath><clipPath clip-path="url(#clip-step-2-shape-0)" id="clip-step-1-shape-0"><path d="M 4216.308241629246 2271.1714370881177 C 4303.281784009748 2327.016506432289 4372.370422398986 2406.6842570433414 4415.345098248328 2500.6855659699313 S 4473.369197405905 2699.0597894864345 4458.700850786471 2801.3725865927604 S 4400.264626828048 2999.625799349338 4332.610354149923 3077.7664944618223 S 4176.266895291671 3212.954702198525 4077.106450107913 3242.1141767347212 S 3762.5454231191575 3262.6129495441196 3600.725178570669 3221.969747558169 S 3550.5064464272873 3115.954530554797 3517.673755112028 3078.094374028668 S 3406.1115624672843 2904.102978232436 3391.3608920568095 2801.8020175003408 S 3391.575653817541 2595.116066075939 3434.474675259794 2501.080206939303 S 3635.1513033608153 2241.4906850443413 3724.152835013646 1919.9027410168246 S 3880.855708203808 2185.716987826225 3924.783076578557 2185.699314197954 S 4129.334699248745 2215.3263677439463 4216.308241629246 2271.1714370881177 "></path></clipPath><clipPath clip-path="url(#clip-step-1-shape-0)" id="clip-step-0-shape-0"><path d="M 4442.725129992568 2716.214285714286 C 4442.725129992568 2815.4644669791624 4414.19679377339 2912.623057587561 4360.538094641731 2996.117623210773 S 4230.351932030533 3145.9236134140147 4140.070791607266 3187.153628754603 S 3949.5599893816357 3242.794493876828 3851.320031855092 3228.669720381523 S 3660.970423636662 3172.4798788859916 3585.9621413911486 3107.4848323386723 S 3437.723465335691 2926.6395784155975 3255.6617311896875 2841.807652371278 S 3405.2359462116615 2648.720586517952 3428.2463755084786 2570.354261100418 S 3510.9538591456353 2389.938785637219 3585.9621413911486 2324.9437390898993 S 3753.0800743285486 2217.8836245423536 3851.320031855092 2203.7588510470487 S 4024.3668017855166 2200.7966065686414 4230.896843439443 1893.7716912908877 S 4299.974014793161 2342.071400462113 4360.53809464173 2436.310948217798 S 4442.725129992568 2616.964104449409 4442.725129992568 2716.214285714286 "></path></clipPath></defs><g clip-path="url(#clip-step-13-shape-0)" id="step-13-shape-0"><path class="step-path path-step-13-shape-0" d="M 5398.373939401555 3653.073733713991 C 5218.773868539595 3935.525988945736 4961.770986165415 4160.401868682191 4657.976573895393 4300.916697126138 S 4016.400499433531 4491.662905431677 3684.8643251424346 4445.627841887207 S 3042.0109999365704 4259.23155014138 2787.9934564391533 4041.262402015647 S 2347.964269057603 3536.9031158344887 2252.1141316120993 3216.2035475610055 S 2154.7180825531996 2571.7330176987575 2074.7796056326974 2212.134977268466 S 2516.7380339942592 1628.4047713797117 2775.251865323503 1402.206820963083 S 3337.1001838351035 1038.4343064838836 3668.176389723183 989.2000924262427 S 4337.5035421822395 986.9333136798989 4642.640595756837 1124.5081677591716 S 5094.6303201306255 1393.4642836091223 5480.085035076019 1413.668437701759 S 5669.020156579535 2300.7221009071754 5670.985489510513 2707.784515094476 S 5577.974010263515 3370.6214784822455 5398.373939401556 3653.0737337139904 " style="fill: rgb(242, 148, 146); stroke: none; stroke-width: 0px;"></path></g><g clip-path="url(#clip-step-12-shape-0)" id="step-12-shape-0"><path class="step-path path-step-12-shape-0" d="M 3931.9161494636846 4287.566968380386 C 3632.337812499798 4288.892824608256 3338.6916639785563 4204.0803528206825 3085.953517653133 4043.2314570682615 S 2632.0375955596082 3652.276676017187 2506.382215568561 3380.3214161818787 S 2335.889954914687 2806.0238502686666 2377.212036566684 2509.3060998041383 S 2544.273525469317 1934.0011684135366 2739.453599807728 1706.726716584833 S 3104.9168994442343 1371.700059274086 3305.513124120448 1207.129891984279 S 4020.8242874290613 1125.9325959143018 4358.630237931015 1223.4995409973524 S 4904.304065866398 1470.7350130944087 5101.488170764544 1696.2729625581326 S 5426.872618550126 2199.2742213000774 5470.819422048519 2495.6145937353203 S 5492.857467865595 2847.0645159663422 5440.189980902374 3016.2358631251545 S 5132.3519144672655 3804.2990900959667 4775.682952686695 4035.7531516688778 S 4231.494486427571 4286.241112152515 3931.916149463685 4287.566968380386 " style="fill: rgb(224, 141, 141); stroke: none; stroke-width: 0px;"></path></g><g clip-path="url(#clip-step-11-shape-0)" id="step-11-shape-0"><path class="step-path path-step-11-shape-0" d="M 2755.2018223174455 3490.3798858709642 C 2609.8033742257485 3266.1244374634625 2531.9287208640726 3004.8018002058448 2530.8534116846654 2737.5377761433233 S 2605.547459473355 2208.3329440265416 2749.1366922729267 1982.914783551495 S 3098.083056893692 1578.1019999974653 3340.7482648114174 1466.0983763321087 S 3853.1589410343613 1314.202839848786 4117.85563514679 1351.1741121270823 S 4533.921400510529 1459.4870049385358 4661.1480596570655 1654.362974848589 S 5169.713267989585 2027.1268186806356 5261.0935600910525 2333.7700959793665 S 5338.51937651208 2862.582159062602 5264.254151263322 3119.323061855037 S 5043.491506794147 3606.047634809586 4842.211012127134 3781.8810142189755 S 4506.160200419914 4015.6040173395495 4219.785909176086 3759.5832332233367 S 3652.0927847323164 4138.483431406345 3350.952888965482 4002.419062224053 S 2900.6002704091416 3714.635334278466 2755.2018223174455 3490.3798858709647 " style="fill: rgb(207, 135, 136); stroke: none; stroke-width: 0px;"></path></g><g clip-path="url(#clip-step-10-shape-0)" id="step-10-shape-0"><path class="step-path path-step-10-shape-0" d="M 2794.921431400076 2226.2763384512405 C 2892.9115594390123 2009.6353135531344 3051.107650678963 1825.7259131310802 3250.6671728696274 1696.4533485049303 S 3682.7386442779343 1497.9936151391098 3920.508822344997 1497.1326366574233 S 4391.285906581718 1563.7731583401223 4591.776388992684 1691.5971205874514 S 4951.790688164588 2002.1800025438392 5051.34716335203 2218.1057006676165 S 5186.736599321905 2677.085784803472 4980.726027417075 2889.228964897446 S 5019.351044390581 3367.158138671918 4865.294220672046 3546.255471981041 S 4506.63724786772 3858.4047920690527 4278.740998346338 3926.21849508014 S 3808.2588893195684 3994.9106144119505 3579.8775084601234 3928.7491170080866 S 2996.9583987089045 3623.672102260748 3081.4140229509985 3201.540631800196 S 2719.5316312161112 3064.6066940260534 2697.967650707391 2918.3865507387604 S 2696.9313033611397 2442.917363349346 2794.9214314000756 2226.2763384512405 " style="fill: rgb(190, 129, 132); stroke: none; stroke-width: 0px;"></path></g><g clip-path="url(#clip-step-9-shape-0)" id="step-9-shape-0"><path class="step-path path-step-9-shape-0" d="M 3764.7806427444148 1651.911743978295 C 3973.6321105463803 1621.196989510056 4186.91086561486 1651.161495371959 4379.213550703897 1738.2362279447666 S 4734.737707028298 1965.8259074195762 4849.436865634483 2143.044514682225 S 5025.478547793491 2526.7160070767595 5026.158007484887 2737.812833390201 S 4966.825225244106 3155.753150762421 4853.269262369528 3333.706445311038 S 4490.772758657281 3722.791849334612 4213.0769409702425 3721.2666810860583 S 3927.0490715086617 3853.6234141844625 3771.797109758496 3831.811357393147 S 3366.5547575058526 3713.6033886500572 3206.5734693997406 3575.87786740948 S 2929.5699617654154 3257.3444395060596 2869.4451763472694 3054.98994382212 S 2828.587813676074 2395.0428740919747 2958.2741334427287 2083.0225705687753 S 3130.3799715161454 1973.258768585261 3201.2162486576976 1911.4784765025072 S 3555.9291749424497 1682.6264984465338 3764.7806427444148 1651.911743978295 " style="fill: rgb(172, 123, 127); stroke: none; stroke-width: 0px;"></path></g><g clip-path="url(#clip-step-8-shape-0)" id="step-8-shape-0"><path class="step-path path-step-8-shape-0" d="M 4661.364081787601 2102.0112920898355 C 4784.381364020656 2243.1755206746307 4864.23013695036 2416.724784387969 4891.399716290636 2601.987854421961 S 4891.914542147463 2976.419361544592 4814.6102691254955 3146.9615572982893 S 4612.610412104434 3462.2317213405877 4455.375847198806 3563.907100655765 S 4114.994834641256 3719.919872126835 3927.7508412431566 3720.447220474824 S 3462.476946726957 3635.922812273276 3226.6678183105305 3546.6148768156713 S 3095.554099956815 3277.7643440857546 3037.6752123760893 3151.9660637161223 S 2931.69169472018 2792.8467067370443 2957.8173126560932 2607.433537713336 S 3062.812886727482 2248.0240943243134 3185.0330823814766 2106.1691862870994 S 3551.6560561032024 1810.9423037261727 3738.0091719265192 1455.8176478675002 S 4063.5386683219826 1766.8347169729384 4197.5380542169805 1805.7708961767821 S 4538.346799554547 1960.8470635050398 4661.364081787601 2102.011292089835 " style="fill: rgb(155, 116, 123); stroke: none; stroke-width: 0px;"></path></g><g clip-path="url(#clip-step-7-shape-0)" id="step-7-shape-0"><path class="step-path path-step-7-shape-0" d="M 4757.490065134024 2986.759763220294 C 4711.047804521437 3146.351764997273 4619.711358029925 3289.2312374452313 4494.3596919168385 3398.37999100964 S 4214.924442734632 3578.3463944452883 4050.461639419402 3602.397941748667 S 3718.0885653793175 3602.7212128860515 3566.73040287589 3534.0393575996904 S 3286.9456065497334 3354.616860136816 3196.7472320072748 3215.0076060313345 S 3055.101289580496 2901.4040129001382 2885.394525069385 2726.3263560390374 S 3108.1192593222386 2412.6161837932564 3194.4840944118814 2277.5139048053197 S 3411.8978575969427 2026.111397998418 3562.9226578810753 1956.6995812729601 S 3881.7412110370997 1862.7490889135083 4046.3182191567794 1886.0063243546685 S 4292.117736525702 1948.8570634366565 4582.022154875958 1736.3754922442365 S 4697.812518865618 2300.7618150658354 4756.310724764877 2498.223772334195 S 4803.93232574661 2827.1677614433147 4757.490065134024 2986.7597632202937 " style="fill: rgb(138, 110, 118); stroke: none; stroke-width: 0px;"></path></g><g clip-path="url(#clip-step-6-shape-0)" id="step-6-shape-0"><path class="step-path path-step-6-shape-0" d="M 4143.9938326489155 3484.0262232593986 C 4002.0727827764495 3526.008302797641 3851.0752946859775 3526.3120629623136 3708.986484297614 3484.901323272253 S 3439.706278460767 3362.110717498882 3342.5619009032516 3250.454775837807 S 3182.4145899026803 3001.5728743242335 3161.057298661152 2855.1217032463524 S 3160.8885221927094 2559.166751207652 3222.0991063329448 2424.417562755663 S 3332.3074677613304 2237.2227844948784 3333.7223369648473 2074.821217804623 S 3735.6363400328246 1972.070307675192 3923.4469313332734 1971.692490952132 S 4216.413508087833 2013.6442135203483 4341.079969711135 2093.4085711344114 S 4564.8583238244155 2287.09029549703 4626.610557586293 2421.592120855189 S 4656.787270590434 2494.581812870493 4780.210802603289 2500.5439305291934 S 4679.229796778479 3051.3984060777693 4509.472186470668 3248.1073138701645 S 4285.914882521382 3442.0441437211566 4143.9938326489155 3484.0262232593986 " style="fill: rgb(120, 104, 114); stroke: none; stroke-width: 0px;"></path></g><g clip-path="url(#clip-step-5-shape-0)" id="step-5-shape-0"><path class="step-path path-step-5-shape-0" d="M 3472.8506478426507 3264.8652855854957 C 3372.4918376373707 3178.1862689400073 3299.1628791214425 3064.4869201944944 3261.5978899009815 2937.3098220308916 S 3223.8151641201075 2674.8381169793024 3260.9706145404302 2547.540767374092 S 3371.088680175334 2306.3086344793464 3471.1679772558564 2219.307042492092 S 3694.2251265245277 2075.90397948347 3825.453800568706 2056.82053584625 S 3971.954374835179 2047.3229834723152 4038.7601945223655 2091.4029072649505 S 4401.771031244535 2204.3274916838986 4506.32341399749 2366.4399513367985 S 4616.522498470957 2607.6350841677313 4616.735912644588 2740.2438967211906 S 4579.0413479926265 3002.7282774294918 4507.527146599432 3114.4012898879264 S 4491.7990429171 3138.1460717524797 4304.196179281266 3018.6165507932965 S 4080.533705314919 3462.153420149385 3827.657630359619 3426.210612755628 S 3573.2094580479306 3351.544302230984 3472.8506478426507 3264.8652855854957 " style="fill: rgb(103, 98, 109); stroke: none; stroke-width: 0px;"></path></g><g clip-path="url(#clip-step-4-shape-0)" id="step-4-shape-0"><path class="step-path path-step-4-shape-0" d="M 3305.1026239475864 2649.0643434114845 C 3322.0424345535594 2530.227293837115 3372.783615728455 2418.763763037856 3451.2824508721187 2327.95002830574 S 3632.72921834699 2170.7999581759677 3747.864252516496 2136.8422574043643 S 3985.4687290536936 2102.736734415316 4100.685402405502 2136.41639766556 S 4319.009845537473 2236.183684388148 4397.727678364496 2326.8076565474166 S 4509.233678777433 2491.21819831612 4372.097612258136 2627.3014966384203 S 4553.26386033338 2868.6330121187225 4494.892096791782 2996.8587000643756 S 4365.06948938005 3198.7625498882253 4264.1652229403835 3263.782012737283 S 4045.794033397711 3363.446939098517 3925.7557872323646 3363.591826830374 S 3532.293266637855 3265.688075240463 3677.9324462503832 2913.0959802084576 S 3372.132686289204 3034.023391939614 3355.735833934137 2998.2336765608543 S 3288.162813341614 2767.9013929858534 3305.1026239475864 2649.0643434114845 " style="fill: rgb(86, 91, 105); stroke: none; stroke-width: 0px;"></path></g><g clip-path="url(#clip-step-3-shape-0)" id="step-3-shape-0"><path class="step-path path-step-3-shape-0" d="M 3685.589032822603 2208.806064443964 C 3785.873914962097 2162.9099305446935 3897.2377231303035 2146.8067574493625 4006.416057869065 2162.414573321643 S 4217.9856223247525 2224.683358220712 4301.394059800474 2296.8397526046506 S 4445.712656568576 2463.6067301621447 4476.869607218575 2569.4025576735617 S 4508.117101531696 2787.7203908341335 4477.1304536690905 2893.56622375575 S 4324.026298541534 3176.5223352604016 4129.509137928245 3146.14441934426 S 4067.243722791213 3292.6476602908906 4007.3324993788915 3301.310805138671 S 3786.789844871956 3301.1703778964306 3686.431229691591 3255.4356968358684 S 3500.974863146703 3136.083200905771 3441.273858930829 3043.3507751408415 S 3320.028949428763 2586.3548730634616 3440.5221719461174 2380.8882527882306 S 3978.8604202360743 2082.9693384094826 3440.7732982579046 2421.2852553268895 S 3585.304150683109 2254.702198343234 3685.589032822603 2208.806064443964 " style="fill: rgb(68, 85, 100); stroke: none; stroke-width: 0px;"></path></g><g clip-path="url(#clip-step-2-shape-0)" id="step-2-shape-0"><path class="step-path path-step-2-shape-0" d="M 4216.308241629246 2271.1714370881177 C 4303.281784009748 2327.016506432289 4372.370422398986 2406.6842570433414 4415.345098248328 2500.6855659699313 S 4473.369197405905 2699.0597894864345 4458.700850786471 2801.3725865927604 S 4400.264626828048 2999.625799349338 4332.610354149923 3077.7664944618223 S 4176.266895291671 3212.954702198525 4077.106450107913 3242.1141767347212 S 3762.5454231191575 3262.6129495441196 3600.725178570669 3221.969747558169 S 3550.5064464272873 3115.954530554797 3517.673755112028 3078.094374028668 S 3406.1115624672843 2904.102978232436 3391.3608920568095 2801.8020175003408 S 3391.575653817541 2595.116066075939 3434.474675259794 2501.080206939303 S 3635.1513033608153 2241.4906850443413 3724.152835013646 1919.9027410168246 S 3880.855708203808 2185.716987826225 3924.783076578557 2185.699314197954 S 4129.334699248745 2215.3263677439463 4216.308241629246 2271.1714370881177 " style="fill: rgb(51, 79, 96); stroke: none; stroke-width: 0px;"></path></g><g clip-path="url(#clip-step-1-shape-0)" id="step-1-shape-0"><path class="step-path path-step-1-shape-0" d="M 4442.725129992568 2716.214285714286 C 4442.725129992568 2815.4644669791624 4414.19679377339 2912.623057587561 4360.538094641731 2996.117623210773 S 4230.351932030533 3145.9236134140147 4140.070791607266 3187.153628754603 S 3949.5599893816357 3242.794493876828 3851.320031855092 3228.669720381523 S 3660.970423636662 3172.4798788859916 3585.9621413911486 3107.4848323386723 S 3437.723465335691 2926.6395784155975 3255.6617311896875 2841.807652371278 S 3405.2359462116615 2648.720586517952 3428.2463755084786 2570.354261100418 S 3510.9538591456353 2389.938785637219 3585.9621413911486 2324.9437390898993 S 3753.0800743285486 2217.8836245423536 3851.320031855092 2203.7588510470487 S 4024.3668017855166 2200.7966065686414 4230.896843439443 1893.7716912908877 S 4299.974014793161 2342.071400462113 4360.53809464173 2436.310948217798 S 4442.725129992568 2616.964104449409 4442.725129992568 2716.214285714286 " style="fill: rgb(34, 73, 91); stroke: none; stroke-width: 0px;"></path></g><g clip-path="url(#clip-step-0-shape-0)" id="step-0-shape-0"><path class="step-path path-step-0-shape-0" d="M 4201.097633246306 3135.9965867767337 C 4118.665399019079 3188.9257156890053 4022.756458981858 3217.0452116772894 3924.7944031966927 3217.0057978671157 S 3730.946065477576 3188.769721655495 3648.556448679452 3135.7742787291213 S 3500.746425064582 3007.2182560959327 3460.087368449689 2918.0924627345767 S 3405.244297061067 2730.0321225324074 3419.2247638214676 2633.072788395535 S 3454.9398820906454 2492.9271696897786 3366.3575787240884 2350.940330504981 S 3662.351213301353 2250.489706011478 3781.230298694273 2215.6356041571585 S 3975.181438628885 2188.114533059584 4069.1642386820677 2215.7514507833066 S 4247.205334724142 2297.457155335868 4311.327051504141 2371.5177478550327 S 4332.085608448494 2396.687244847877 4521.659806962334 2281.976545261045 S 4465.607011991705 2752.5216096753047 4389.741815552873 2918.4664975954374 S 4283.529867473533 3083.067457864462 4201.097633246306 3135.9965867767337 " style="fill: rgb(17, 67, 87); stroke: none; stroke-width: 0px;"></path></g><g clip-path="url(#clip-step-13-shape-0)" id="step-13-shape-0"><path d="M 5398.373939401555 3653.073733713991 C 5218.773868539595 3935.525988945736 4961.770986165415 4160.401868682191 4657.976573895393 4300.916697126138 S 4016.400499433531 4491.662905431677 3684.8643251424346 4445.627841887207 S 3042.0109999365704 4259.23155014138 2787.9934564391533 4041.262402015647 S 2347.964269057603 3536.9031158344887 2252.1141316120993 3216.2035475610055 S 2154.7180825531996 2571.7330176987575 2074.7796056326974 2212.134977268466 S 2516.7380339942592 1628.4047713797117 2775.251865323503 1402.206820963083 S 3337.1001838351035 1038.4343064838836 3668.176389723183 989.2000924262427 S 4337.5035421822395 986.9333136798989 4642.640595756837 1124.5081677591716 S 5094.6303201306255 1393.4642836091223 5480.085035076019 1413.668437701759 S 5669.020156579535 2300.7221009071754 5670.985489510513 2707.784515094476 S 5577.974010263515 3370.6214784822455 5398.373939401556 3653.0737337139904 " style="fill: rgb(242, 148, 146); stroke: none; stroke-width: 0px; filter: url(&quot;#svg-shadow&quot;);"></path></g><g clip-path="url(#clip-step-12-shape-0)" id="step-12-shape-0"><path d="M 3931.9161494636846 4287.566968380386 C 3632.337812499798 4288.892824608256 3338.6916639785563 4204.0803528206825 3085.953517653133 4043.2314570682615 S 2632.0375955596082 3652.276676017187 2506.382215568561 3380.3214161818787 S 2335.889954914687 2806.0238502686666 2377.212036566684 2509.3060998041383 S 2544.273525469317 1934.0011684135366 2739.453599807728 1706.726716584833 S 3104.9168994442343 1371.700059274086 3305.513124120448 1207.129891984279 S 4020.8242874290613 1125.9325959143018 4358.630237931015 1223.4995409973524 S 4904.304065866398 1470.7350130944087 5101.488170764544 1696.2729625581326 S 5426.872618550126 2199.2742213000774 5470.819422048519 2495.6145937353203 S 5492.857467865595 2847.0645159663422 5440.189980902374 3016.2358631251545 S 5132.3519144672655 3804.2990900959667 4775.682952686695 4035.7531516688778 S 4231.494486427571 4286.241112152515 3931.916149463685 4287.566968380386 " style="fill: rgb(224, 141, 141); stroke: none; stroke-width: 0px; filter: url(&quot;#svg-shadow&quot;);"></path></g><g clip-path="url(#clip-step-11-shape-0)" id="step-11-shape-0"><path d="M 2755.2018223174455 3490.3798858709642 C 2609.8033742257485 3266.1244374634625 2531.9287208640726 3004.8018002058448 2530.8534116846654 2737.5377761433233 S 2605.547459473355 2208.3329440265416 2749.1366922729267 1982.914783551495 S 3098.083056893692 1578.1019999974653 3340.7482648114174 1466.0983763321087 S 3853.1589410343613 1314.202839848786 4117.85563514679 1351.1741121270823 S 4533.921400510529 1459.4870049385358 4661.1480596570655 1654.362974848589 S 5169.713267989585 2027.1268186806356 5261.0935600910525 2333.7700959793665 S 5338.51937651208 2862.582159062602 5264.254151263322 3119.323061855037 S 5043.491506794147 3606.047634809586 4842.211012127134 3781.8810142189755 S 4506.160200419914 4015.6040173395495 4219.785909176086 3759.5832332233367 S 3652.0927847323164 4138.483431406345 3350.952888965482 4002.419062224053 S 2900.6002704091416 3714.635334278466 2755.2018223174455 3490.3798858709647 " style="fill: rgb(207, 135, 136); stroke: none; stroke-width: 0px; filter: url(&quot;#svg-shadow&quot;);"></path></g><g clip-path="url(#clip-step-10-shape-0)" id="step-10-shape-0"><path d="M 2794.921431400076 2226.2763384512405 C 2892.9115594390123 2009.6353135531344 3051.107650678963 1825.7259131310802 3250.6671728696274 1696.4533485049303 S 3682.7386442779343 1497.9936151391098 3920.508822344997 1497.1326366574233 S 4391.285906581718 1563.7731583401223 4591.776388992684 1691.5971205874514 S 4951.790688164588 2002.1800025438392 5051.34716335203 2218.1057006676165 S 5186.736599321905 2677.085784803472 4980.726027417075 2889.228964897446 S 5019.351044390581 3367.158138671918 4865.294220672046 3546.255471981041 S 4506.63724786772 3858.4047920690527 4278.740998346338 3926.21849508014 S 3808.2588893195684 3994.9106144119505 3579.8775084601234 3928.7491170080866 S 2996.9583987089045 3623.672102260748 3081.4140229509985 3201.540631800196 S 2719.5316312161112 3064.6066940260534 2697.967650707391 2918.3865507387604 S 2696.9313033611397 2442.917363349346 2794.9214314000756 2226.2763384512405 " style="fill: rgb(190, 129, 132); stroke: none; stroke-width: 0px; filter: url(&quot;#svg-shadow&quot;);"></path></g><g clip-path="url(#clip-step-9-shape-0)" id="step-9-shape-0"><path d="M 3764.7806427444148 1651.911743978295 C 3973.6321105463803 1621.196989510056 4186.91086561486 1651.161495371959 4379.213550703897 1738.2362279447666 S 4734.737707028298 1965.8259074195762 4849.436865634483 2143.044514682225 S 5025.478547793491 2526.7160070767595 5026.158007484887 2737.812833390201 S 4966.825225244106 3155.753150762421 4853.269262369528 3333.706445311038 S 4490.772758657281 3722.791849334612 4213.0769409702425 3721.2666810860583 S 3927.0490715086617 3853.6234141844625 3771.797109758496 3831.811357393147 S 3366.5547575058526 3713.6033886500572 3206.5734693997406 3575.87786740948 S 2929.5699617654154 3257.3444395060596 2869.4451763472694 3054.98994382212 S 2828.587813676074 2395.0428740919747 2958.2741334427287 2083.0225705687753 S 3130.3799715161454 1973.258768585261 3201.2162486576976 1911.4784765025072 S 3555.9291749424497 1682.6264984465338 3764.7806427444148 1651.911743978295 " style="fill: rgb(172, 123, 127); stroke: none; stroke-width: 0px; filter: url(&quot;#svg-shadow&quot;);"></path></g><g clip-path="url(#clip-step-8-shape-0)" id="step-8-shape-0"><path d="M 4661.364081787601 2102.0112920898355 C 4784.381364020656 2243.1755206746307 4864.23013695036 2416.724784387969 4891.399716290636 2601.987854421961 S 4891.914542147463 2976.419361544592 4814.6102691254955 3146.9615572982893 S 4612.610412104434 3462.2317213405877 4455.375847198806 3563.907100655765 S 4114.994834641256 3719.919872126835 3927.7508412431566 3720.447220474824 S 3462.476946726957 3635.922812273276 3226.6678183105305 3546.6148768156713 S 3095.554099956815 3277.7643440857546 3037.6752123760893 3151.9660637161223 S 2931.69169472018 2792.8467067370443 2957.8173126560932 2607.433537713336 S 3062.812886727482 2248.0240943243134 3185.0330823814766 2106.1691862870994 S 3551.6560561032024 1810.9423037261727 3738.0091719265192 1455.8176478675002 S 4063.5386683219826 1766.8347169729384 4197.5380542169805 1805.7708961767821 S 4538.346799554547 1960.8470635050398 4661.364081787601 2102.011292089835 " style="fill: rgb(155, 116, 123); stroke: none; stroke-width: 0px; filter: url(&quot;#svg-shadow&quot;);"></path></g><g clip-path="url(#clip-step-7-shape-0)" id="step-7-shape-0"><path d="M 4757.490065134024 2986.759763220294 C 4711.047804521437 3146.351764997273 4619.711358029925 3289.2312374452313 4494.3596919168385 3398.37999100964 S 4214.924442734632 3578.3463944452883 4050.461639419402 3602.397941748667 S 3718.0885653793175 3602.7212128860515 3566.73040287589 3534.0393575996904 S 3286.9456065497334 3354.616860136816 3196.7472320072748 3215.0076060313345 S 3055.101289580496 2901.4040129001382 2885.394525069385 2726.3263560390374 S 3108.1192593222386 2412.6161837932564 3194.4840944118814 2277.5139048053197 S 3411.8978575969427 2026.111397998418 3562.9226578810753 1956.6995812729601 S 3881.7412110370997 1862.7490889135083 4046.3182191567794 1886.0063243546685 S 4292.117736525702 1948.8570634366565 4582.022154875958 1736.3754922442365 S 4697.812518865618 2300.7618150658354 4756.310724764877 2498.223772334195 S 4803.93232574661 2827.1677614433147 4757.490065134024 2986.7597632202937 " style="fill: rgb(138, 110, 118); stroke: none; stroke-width: 0px; filter: url(&quot;#svg-shadow&quot;);"></path></g><g clip-path="url(#clip-step-6-shape-0)" id="step-6-shape-0"><path d="M 4143.9938326489155 3484.0262232593986 C 4002.0727827764495 3526.008302797641 3851.0752946859775 3526.3120629623136 3708.986484297614 3484.901323272253 S 3439.706278460767 3362.110717498882 3342.5619009032516 3250.454775837807 S 3182.4145899026803 3001.5728743242335 3161.057298661152 2855.1217032463524 S 3160.8885221927094 2559.166751207652 3222.0991063329448 2424.417562755663 S 3332.3074677613304 2237.2227844948784 3333.7223369648473 2074.821217804623 S 3735.6363400328246 1972.070307675192 3923.4469313332734 1971.692490952132 S 4216.413508087833 2013.6442135203483 4341.079969711135 2093.4085711344114 S 4564.8583238244155 2287.09029549703 4626.610557586293 2421.592120855189 S 4656.787270590434 2494.581812870493 4780.210802603289 2500.5439305291934 S 4679.229796778479 3051.3984060777693 4509.472186470668 3248.1073138701645 S 4285.914882521382 3442.0441437211566 4143.9938326489155 3484.0262232593986 " style="fill: rgb(120, 104, 114); stroke: none; stroke-width: 0px; filter: url(&quot;#svg-shadow&quot;);"></path></g><g clip-path="url(#clip-step-5-shape-0)" id="step-5-shape-0"><path d="M 3472.8506478426507 3264.8652855854957 C 3372.4918376373707 3178.1862689400073 3299.1628791214425 3064.4869201944944 3261.5978899009815 2937.3098220308916 S 3223.8151641201075 2674.8381169793024 3260.9706145404302 2547.540767374092 S 3371.088680175334 2306.3086344793464 3471.1679772558564 2219.307042492092 S 3694.2251265245277 2075.90397948347 3825.453800568706 2056.82053584625 S 3971.954374835179 2047.3229834723152 4038.7601945223655 2091.4029072649505 S 4401.771031244535 2204.3274916838986 4506.32341399749 2366.4399513367985 S 4616.522498470957 2607.6350841677313 4616.735912644588 2740.2438967211906 S 4579.0413479926265 3002.7282774294918 4507.527146599432 3114.4012898879264 S 4491.7990429171 3138.1460717524797 4304.196179281266 3018.6165507932965 S 4080.533705314919 3462.153420149385 3827.657630359619 3426.210612755628 S 3573.2094580479306 3351.544302230984 3472.8506478426507 3264.8652855854957 " style="fill: rgb(103, 98, 109); stroke: none; stroke-width: 0px; filter: url(&quot;#svg-shadow&quot;);"></path></g><g clip-path="url(#clip-step-4-shape-0)" id="step-4-shape-0"><path d="M 3305.1026239475864 2649.0643434114845 C 3322.0424345535594 2530.227293837115 3372.783615728455 2418.763763037856 3451.2824508721187 2327.95002830574 S 3632.72921834699 2170.7999581759677 3747.864252516496 2136.8422574043643 S 3985.4687290536936 2102.736734415316 4100.685402405502 2136.41639766556 S 4319.009845537473 2236.183684388148 4397.727678364496 2326.8076565474166 S 4509.233678777433 2491.21819831612 4372.097612258136 2627.3014966384203 S 4553.26386033338 2868.6330121187225 4494.892096791782 2996.8587000643756 S 4365.06948938005 3198.7625498882253 4264.1652229403835 3263.782012737283 S 4045.794033397711 3363.446939098517 3925.7557872323646 3363.591826830374 S 3532.293266637855 3265.688075240463 3677.9324462503832 2913.0959802084576 S 3372.132686289204 3034.023391939614 3355.735833934137 2998.2336765608543 S 3288.162813341614 2767.9013929858534 3305.1026239475864 2649.0643434114845 " style="fill: rgb(86, 91, 105); stroke: none; stroke-width: 0px; filter: url(&quot;#svg-shadow&quot;);"></path></g><g clip-path="url(#clip-step-3-shape-0)" id="step-3-shape-0"><path d="M 3685.589032822603 2208.806064443964 C 3785.873914962097 2162.9099305446935 3897.2377231303035 2146.8067574493625 4006.416057869065 2162.414573321643 S 4217.9856223247525 2224.683358220712 4301.394059800474 2296.8397526046506 S 4445.712656568576 2463.6067301621447 4476.869607218575 2569.4025576735617 S 4508.117101531696 2787.7203908341335 4477.1304536690905 2893.56622375575 S 4324.026298541534 3176.5223352604016 4129.509137928245 3146.14441934426 S 4067.243722791213 3292.6476602908906 4007.3324993788915 3301.310805138671 S 3786.789844871956 3301.1703778964306 3686.431229691591 3255.4356968358684 S 3500.974863146703 3136.083200905771 3441.273858930829 3043.3507751408415 S 3320.028949428763 2586.3548730634616 3440.5221719461174 2380.8882527882306 S 3978.8604202360743 2082.9693384094826 3440.7732982579046 2421.2852553268895 S 3585.304150683109 2254.702198343234 3685.589032822603 2208.806064443964 " style="fill: rgb(68, 85, 100); stroke: none; stroke-width: 0px; filter: url(&quot;#svg-shadow&quot;);"></path></g><g clip-path="url(#clip-step-2-shape-0)" id="step-2-shape-0"><path d="M 4216.308241629246 2271.1714370881177 C 4303.281784009748 2327.016506432289 4372.370422398986 2406.6842570433414 4415.345098248328 2500.6855659699313 S 4473.369197405905 2699.0597894864345 4458.700850786471 2801.3725865927604 S 4400.264626828048 2999.625799349338 4332.610354149923 3077.7664944618223 S 4176.266895291671 3212.954702198525 4077.106450107913 3242.1141767347212 S 3762.5454231191575 3262.6129495441196 3600.725178570669 3221.969747558169 S 3550.5064464272873 3115.954530554797 3517.673755112028 3078.094374028668 S 3406.1115624672843 2904.102978232436 3391.3608920568095 2801.8020175003408 S 3391.575653817541 2595.116066075939 3434.474675259794 2501.080206939303 S 3635.1513033608153 2241.4906850443413 3724.152835013646 1919.9027410168246 S 3880.855708203808 2185.716987826225 3924.783076578557 2185.699314197954 S 4129.334699248745 2215.3263677439463 4216.308241629246 2271.1714370881177 " style="fill: rgb(51, 79, 96); stroke: none; stroke-width: 0px; filter: url(&quot;#svg-shadow&quot;);"></path></g><g clip-path="url(#clip-step-1-shape-0)" id="step-1-shape-0"><path d="M 4442.725129992568 2716.214285714286 C 4442.725129992568 2815.4644669791624 4414.19679377339 2912.623057587561 4360.538094641731 2996.117623210773 S 4230.351932030533 3145.9236134140147 4140.070791607266 3187.153628754603 S 3949.5599893816357 3242.794493876828 3851.320031855092 3228.669720381523 S 3660.970423636662 3172.4798788859916 3585.9621413911486 3107.4848323386723 S 3437.723465335691 2926.6395784155975 3255.6617311896875 2841.807652371278 S 3405.2359462116615 2648.720586517952 3428.2463755084786 2570.354261100418 S 3510.9538591456353 2389.938785637219 3585.9621413911486 2324.9437390898993 S 3753.0800743285486 2217.8836245423536 3851.320031855092 2203.7588510470487 S 4024.3668017855166 2200.7966065686414 4230.896843439443 1893.7716912908877 S 4299.974014793161 2342.071400462113 4360.53809464173 2436.310948217798 S 4442.725129992568 2616.964104449409 4442.725129992568 2716.214285714286 " style="fill: rgb(34, 73, 91); stroke: none; stroke-width: 0px; filter: url(&quot;#svg-shadow&quot;);"></path></g><g clip-path="url(#clip-step-0-shape-0)" id="step-0-shape-0"><path d="M 4201.097633246306 3135.9965867767337 C 4118.665399019079 3188.9257156890053 4022.756458981858 3217.0452116772894 3924.7944031966927 3217.0057978671157 S 3730.946065477576 3188.769721655495 3648.556448679452 3135.7742787291213 S 3500.746425064582 3007.2182560959327 3460.087368449689 2918.0924627345767 S 3405.244297061067 2730.0321225324074 3419.2247638214676 2633.072788395535 S 3454.9398820906454 2492.9271696897786 3366.3575787240884 2350.940330504981 S 3662.351213301353 2250.489706011478 3781.230298694273 2215.6356041571585 S 3975.181438628885 2188.114533059584 4069.1642386820677 2215.7514507833066 S 4247.205334724142 2297.457155335868 4311.327051504141 2371.5177478550327 S 4332.085608448494 2396.687244847877 4521.659806962334 2281.976545261045 S 4465.607011991705 2752.5216096753047 4389.741815552873 2918.4664975954374 S 4283.529867473533 3083.067457864462 4201.097633246306 3135.9965867767337 " style="fill: rgb(17, 67, 87); stroke: none; stroke-width: 0px; filter: url(&quot;#svg-shadow&quot;);"></path></g></svg>